<?xml version="1.0" encoding="UTF-8"?>
<!-- Generated by Pixelmator Pro 2.4.3 -->
<svg width="128" height="128" viewBox="0 0 128 128" xmlns="http://www.w3.org/2000/svg" xmlns:xlink="http://www.w3.org/1999/xlink">
    <path id="path1" fill="#ffffff" stroke="none" d="M 127.110001 122.870003 L 78.660004 74.870003 C 90.418709 61.62056 93.309967 42.705017 86.046082 26.547951 C 78.782196 10.390877 62.714825 -0.001236 45 0 C 33.058636 -0.033325 21.600384 4.712746 13.18 13.18 L 13.18 13.18 C 0.309926 26.049919 -3.540159 45.405357 3.425053 62.22081 C 10.390265 79.036255 26.799078 90.00016 45 90 C 55.792446 90.027161 66.229477 86.144363 74.379997 79.07 L 122.889999 127.129997 C 123.641754 127.928673 124.769447 128.253433 125.830841 127.976906 C 126.892235 127.700386 127.718117 126.866676 127.984612 125.802719 C 128.251114 124.73877 127.915726 123.614189 127.110001 122.870003 Z M 17.42 72.580002 C 2.192438 57.350052 2.192438 32.65995 17.42 17.43 L 17.42 17.43 C 32.64925 2.197983 57.342987 2.195747 72.574997 17.425003 C 87.807014 32.654251 87.80925 57.347992 72.580002 72.580002 C 57.350048 87.807564 32.65995 87.807564 17.43 72.580002 Z"/>
</svg>
